<svg xmlns="http://www.w3.org/2000/svg" viewBox="0 0 1200 800" role="img" aria-labelledby="title desc">
  <title id="title">Jisa AI Manga Translator preview</title>
  <desc id="desc">Stylized manga page translation workflow with detection, OCR, translation, and cleaned output panels.</desc>
  <defs>
    <linearGradient id="bg" x1="0" y1="0" x2="1" y2="1">
      <stop offset="0%" stop-color="#0b0f14"/>
      <stop offset="100%" stop-color="#17202b"/>
    </linearGradient>
    <linearGradient id="panel" x1="0" y1="0" x2="1" y2="1">
      <stop offset="0%" stop-color="#111926"/>
      <stop offset="100%" stop-color="#0a111a"/>
    </linearGradient>
    <linearGradient id="accent" x1="0" y1="0" x2="1" y2="0">
      <stop offset="0%" stop-color="#4ade80"/>
      <stop offset="100%" stop-color="#60a5fa"/>
    </linearGradient>
  </defs>

  <rect width="1200" height="800" fill="url(#bg)"/>
  <circle cx="1010" cy="150" r="190" fill="#60a5fa" opacity="0.10"/>
  <circle cx="220" cy="690" r="230" fill="#4ade80" opacity="0.08"/>

  <rect x="90" y="100" width="1020" height="600" rx="34" fill="url(#panel)" stroke="#ffffff" stroke-opacity="0.08"/>
  <rect x="130" y="140" width="300" height="520" rx="26" fill="#ffffff" fill-opacity="0.05"/>
  <rect x="450" y="140" width="300" height="520" rx="26" fill="#ffffff" fill-opacity="0.05"/>
  <rect x="770" y="140" width="300" height="520" rx="26" fill="#ffffff" fill-opacity="0.05"/>

  <rect x="160" y="190" width="160" height="20" rx="10" fill="#ffffff" fill-opacity="0.18"/>
  <rect x="160" y="228" width="220" height="14" rx="7" fill="#ffffff" fill-opacity="0.12"/>
  <rect x="160" y="254" width="180" height="14" rx="7" fill="#ffffff" fill-opacity="0.12"/>
  <rect x="160" y="290" width="220" height="240" rx="20" fill="#ffffff" fill-opacity="0.06" stroke="#ffffff" stroke-opacity="0.08"/>
  <ellipse cx="270" cy="388" rx="74" ry="48" fill="#ffffff" fill-opacity="0.14"/>
  <rect x="205" y="376" width="130" height="24" rx="12" fill="#4ade80" fill-opacity="0.65"/>

  <rect x="480" y="190" width="160" height="20" rx="10" fill="#ffffff" fill-opacity="0.18"/>
  <rect x="480" y="228" width="220" height="14" rx="7" fill="#ffffff" fill-opacity="0.12"/>
  <rect x="480" y="254" width="180" height="14" rx="7" fill="#ffffff" fill-opacity="0.12"/>
  <rect x="480" y="290" width="220" height="240" rx="20" fill="#ffffff" fill-opacity="0.06" stroke="#ffffff" stroke-opacity="0.08"/>
  <rect x="520" y="330" width="140" height="20" rx="10" fill="#60a5fa" fill-opacity="0.65"/>
  <rect x="520" y="364" width="160" height="20" rx="10" fill="#60a5fa" fill-opacity="0.45"/>
  <rect x="520" y="398" width="120" height="20" rx="10" fill="#60a5fa" fill-opacity="0.35"/>
  <rect x="520" y="445" width="118" height="42" rx="21" fill="url(#accent)"/>

  <rect x="800" y="190" width="160" height="20" rx="10" fill="#ffffff" fill-opacity="0.18"/>
  <rect x="800" y="228" width="220" height="14" rx="7" fill="#ffffff" fill-opacity="0.12"/>
  <rect x="800" y="254" width="180" height="14" rx="7" fill="#ffffff" fill-opacity="0.12"/>
  <rect x="800" y="290" width="220" height="240" rx="20" fill="#ffffff" fill-opacity="0.06" stroke="#ffffff" stroke-opacity="0.08"/>
  <rect x="830" y="326" width="160" height="18" rx="9" fill="#4ade80" fill-opacity="0.55"/>
  <rect x="830" y="358" width="132" height="18" rx="9" fill="#ffffff" fill-opacity="0.18"/>
  <rect x="830" y="390" width="170" height="18" rx="9" fill="#ffffff" fill-opacity="0.12"/>
  <rect x="830" y="438" width="150" height="42" rx="21" fill="#4ade80" fill-opacity="0.16" stroke="#4ade80" stroke-opacity="0.35"/>

  <path d="M140 610h920" stroke="#ffffff" stroke-opacity="0.08"/>
  <text x="150" y="640" fill="#e5eef7" font-family="Arial, Helvetica, sans-serif" font-size="52" font-weight="700">Jisa</text>
  <text x="150" y="682" fill="#9fb3c8" font-family="Arial, Helvetica, sans-serif" font-size="22">AI manga translator for OCR, cleanup, and Thai typesetting</text>
</svg>
