<svg xmlns="http://www.w3.org/2000/svg" viewBox="0 0 1200 800" role="img" aria-labelledby="title desc">
  <title id="title">Meguri project preview</title>
  <desc id="desc">Abstract dashboard illustration for Meguri with inventory and recipe management motifs.</desc>
  <defs>
    <linearGradient id="bg" x1="0" y1="0" x2="1" y2="1">
      <stop offset="0%" stop-color="#08141f"/>
      <stop offset="55%" stop-color="#0d2233"/>
      <stop offset="100%" stop-color="#18314a"/>
    </linearGradient>
    <linearGradient id="panel" x1="0" y1="0" x2="1" y2="1">
      <stop offset="0%" stop-color="#10283c"/>
      <stop offset="100%" stop-color="#0b1a28"/>
    </linearGradient>
    <linearGradient id="accent" x1="0" y1="0" x2="1" y2="0">
      <stop offset="0%" stop-color="#4ade80"/>
      <stop offset="100%" stop-color="#f59e0b"/>
    </linearGradient>
  </defs>

  <rect width="1200" height="800" fill="url(#bg)"/>
  <circle cx="980" cy="150" r="180" fill="#4ade80" opacity="0.12"/>
  <circle cx="220" cy="690" r="210" fill="#f59e0b" opacity="0.10"/>
  <path d="M120 640C240 530 370 520 500 585s248 69 402-14 234-84 278-56v165H120Z" fill="#0a1722" opacity="0.95"/>

  <rect x="110" y="110" width="980" height="580" rx="32" fill="url(#panel)" stroke="#ffffff" stroke-opacity="0.08"/>
  <rect x="150" y="150" width="360" height="64" rx="18" fill="#ffffff" fill-opacity="0.05"/>
  <rect x="534" y="150" width="250" height="64" rx="18" fill="#ffffff" fill-opacity="0.05"/>
  <rect x="806" y="150" width="244" height="64" rx="18" fill="#ffffff" fill-opacity="0.05"/>

  <rect x="150" y="246" width="290" height="300" rx="24" fill="#ffffff" fill-opacity="0.05"/>
  <rect x="466" y="246" width="584" height="300" rx="24" fill="#ffffff" fill-opacity="0.05"/>

  <rect x="182" y="280" width="145" height="18" rx="9" fill="#4ade80"/>
  <rect x="182" y="316" width="220" height="16" rx="8" fill="#ffffff" fill-opacity="0.22"/>
  <rect x="182" y="346" width="180" height="16" rx="8" fill="#ffffff" fill-opacity="0.16"/>
  <rect x="182" y="376" width="200" height="16" rx="8" fill="#ffffff" fill-opacity="0.16"/>
  <rect x="182" y="428" width="116" height="40" rx="20" fill="url(#accent)"/>
  <rect x="312" y="428" width="92" height="40" rx="20" fill="#ffffff" fill-opacity="0.08"/>

  <rect x="500" y="282" width="188" height="22" rx="11" fill="#ffffff" fill-opacity="0.22"/>
  <rect x="500" y="326" width="490" height="14" rx="7" fill="#ffffff" fill-opacity="0.14"/>
  <rect x="500" y="356" width="430" height="14" rx="7" fill="#ffffff" fill-opacity="0.14"/>
  <rect x="500" y="386" width="456" height="14" rx="7" fill="#ffffff" fill-opacity="0.14"/>
  <rect x="500" y="434" width="166" height="66" rx="18" fill="#4ade80" fill-opacity="0.14" stroke="#4ade80" stroke-opacity="0.35"/>
  <rect x="686" y="434" width="166" height="66" rx="18" fill="#f59e0b" fill-opacity="0.14" stroke="#f59e0b" stroke-opacity="0.35"/>
  <rect x="872" y="434" width="126" height="66" rx="18" fill="#ffffff" fill-opacity="0.08"/>

  <circle cx="584" cy="467" r="18" fill="#4ade80"/>
  <circle cx="770" cy="467" r="18" fill="#f59e0b"/>
  <circle cx="935" cy="467" r="18" fill="#93c5fd"/>

  <text x="160" y="625" fill="#e5eef7" font-family="Arial, Helvetica, sans-serif" font-size="54" font-weight="700">Meguri</text>
  <text x="160" y="671" fill="#9fb3c8" font-family="Arial, Helvetica, sans-serif" font-size="22">SmartStock for recipe-based businesses and smart retail</text>
</svg>
