<svg width="1600" height="900" viewBox="0 0 1600 900" fill="none" xmlns="http://www.w3.org/2000/svg">
  <defs>
    <linearGradient id="bg" x1="120" y1="80" x2="1460" y2="820" gradientUnits="userSpaceOnUse">
      <stop offset="0" stop-color="#07150f"/>
      <stop offset="0.45" stop-color="#0d241a"/>
      <stop offset="1" stop-color="#07100c"/>
    </linearGradient>
    <linearGradient id="accent" x1="360" y1="200" x2="1240" y2="740" gradientUnits="userSpaceOnUse">
      <stop offset="0" stop-color="#5df0a3" stop-opacity="0.95"/>
      <stop offset="1" stop-color="#1b7f53" stop-opacity="0.8"/>
    </linearGradient>
    <filter id="blur" x="0" y="0" width="1600" height="900" filterUnits="userSpaceOnUse" color-interpolation-filters="sRGB">
      <feGaussianBlur stdDeviation="40"/>
    </filter>
  </defs>
  <rect width="1600" height="900" fill="url(#bg)"/>
  <circle cx="310" cy="210" r="190" fill="#133726" filter="url(#blur)" opacity="0.9"/>
  <circle cx="1280" cy="170" r="210" fill="#0f4d33" filter="url(#blur)" opacity="0.7"/>
  <circle cx="1320" cy="720" r="260" fill="#143b29" filter="url(#blur)" opacity="0.7"/>
  <path d="M160 590C320 430 520 350 800 350C1080 350 1280 430 1440 590" stroke="url(#accent)" stroke-width="2" stroke-dasharray="8 14" opacity="0.5"/>
  <path d="M220 640C360 520 555 455 800 455C1045 455 1240 520 1380 640" stroke="url(#accent)" stroke-width="2" opacity="0.35"/>
  <rect x="210" y="130" width="1180" height="640" rx="40" fill="white" fill-opacity="0.04" stroke="white" stroke-opacity="0.1"/>
  <rect x="270" y="190" width="760" height="520" rx="28" fill="#08110d" fill-opacity="0.92" stroke="#5df0a3" stroke-opacity="0.16"/>
  <rect x="1070" y="190" width="260" height="220" rx="24" fill="#08110d" fill-opacity="0.92" stroke="#5df0a3" stroke-opacity="0.16"/>
  <rect x="1070" y="440" width="260" height="270" rx="24" fill="#08110d" fill-opacity="0.92" stroke="#5df0a3" stroke-opacity="0.16"/>
  <rect x="330" y="250" width="280" height="18" rx="9" fill="#5df0a3" fill-opacity="0.9"/>
  <rect x="330" y="290" width="430" height="12" rx="6" fill="#d6f7e6" fill-opacity="0.4"/>
  <rect x="330" y="316" width="350" height="12" rx="6" fill="#d6f7e6" fill-opacity="0.28"/>
  <rect x="330" y="370" width="165" height="165" rx="24" fill="#0f2b1d" stroke="#5df0a3" stroke-opacity="0.14"/>
  <rect x="520" y="370" width="165" height="165" rx="24" fill="#102d1f" stroke="#5df0a3" stroke-opacity="0.14"/>
  <rect x="710" y="370" width="260" height="165" rx="24" fill="#0d241a" stroke="#5df0a3" stroke-opacity="0.14"/>
  <rect x="330" y="565" width="640" height="70" rx="18" fill="#0e2418" stroke="#5df0a3" stroke-opacity="0.14"/>
  <rect x="1098" y="232" width="202" height="18" rx="9" fill="#5df0a3" fill-opacity="0.8"/>
  <rect x="1098" y="272" width="182" height="10" rx="5" fill="#d6f7e6" fill-opacity="0.34"/>
  <rect x="1098" y="296" width="150" height="10" rx="5" fill="#d6f7e6" fill-opacity="0.24"/>
  <rect x="1098" y="320" width="128" height="10" rx="5" fill="#d6f7e6" fill-opacity="0.18"/>
  <rect x="1098" y="482" width="182" height="18" rx="9" fill="#5df0a3" fill-opacity="0.8"/>
  <rect x="1098" y="524" width="192" height="10" rx="5" fill="#d6f7e6" fill-opacity="0.34"/>
  <rect x="1098" y="548" width="170" height="10" rx="5" fill="#d6f7e6" fill-opacity="0.24"/>
  <rect x="1098" y="572" width="136" height="10" rx="5" fill="#d6f7e6" fill-opacity="0.18"/>
  <text x="330" y="492" fill="#f4fff9" font-family="Inter, ui-sans-serif, system-ui, sans-serif" font-size="42" font-weight="700">Developer Portfolio</text>
  <text x="330" y="538" fill="#aee9c9" font-family="Inter, ui-sans-serif, system-ui, sans-serif" font-size="20" font-weight="500">Astro 5  •  Tailwind CSS 4  •  GSAP  •  Lenis</text>
  <text x="330" y="620" fill="#7fd9ad" font-family="Menlo, Consolas, monospace" font-size="18" font-weight="700">/projects/portfolio-website</text>
</svg>
