<svg xmlns="http://www.w3.org/2000/svg" viewBox="0 0 1200 800" role="img" aria-labelledby="title desc">
  <title id="title">SeeU Bangkok project preview</title>
  <desc id="desc">Illustration of a Bangkok trip planner interface with map, chat, and itinerary panels.</desc>
  <defs>
    <linearGradient id="bg" x1="0" y1="0" x2="1" y2="1">
      <stop offset="0%" stop-color="#081018"/>
      <stop offset="100%" stop-color="#13293d"/>
    </linearGradient>
    <linearGradient id="panel" x1="0" y1="0" x2="1" y2="1">
      <stop offset="0%" stop-color="#112235"/>
      <stop offset="100%" stop-color="#0b1724"/>
    </linearGradient>
    <linearGradient id="accent" x1="0" y1="0" x2="1" y2="0">
      <stop offset="0%" stop-color="#4ade80"/>
      <stop offset="100%" stop-color="#60a5fa"/>
    </linearGradient>
  </defs>

  <rect width="1200" height="800" fill="url(#bg)"/>
  <circle cx="1000" cy="170" r="190" fill="#4ade80" opacity="0.10"/>
  <circle cx="240" cy="680" r="240" fill="#60a5fa" opacity="0.10"/>

  <rect x="100" y="100" width="1000" height="600" rx="34" fill="url(#panel)" stroke="#ffffff" stroke-opacity="0.08"/>
  <rect x="140" y="140" width="360" height="520" rx="26" fill="#ffffff" fill-opacity="0.05"/>
  <rect x="526" y="140" width="534" height="248" rx="26" fill="#ffffff" fill-opacity="0.05"/>
  <rect x="526" y="412" width="534" height="248" rx="26" fill="#ffffff" fill-opacity="0.05"/>

  <path d="M188 196C236 172 300 170 350 200c28 18 64 22 102 14v92H188Z" fill="#4ade80" fill-opacity="0.18"/>
  <rect x="170" y="318" width="252" height="16" rx="8" fill="#ffffff" fill-opacity="0.18"/>
  <rect x="170" y="352" width="210" height="16" rx="8" fill="#ffffff" fill-opacity="0.14"/>
  <rect x="170" y="386" width="230" height="16" rx="8" fill="#ffffff" fill-opacity="0.14"/>
  <rect x="170" y="444" width="120" height="42" rx="21" fill="url(#accent)"/>
  <rect x="304" y="444" width="118" height="42" rx="21" fill="#ffffff" fill-opacity="0.08"/>

  <path d="M618 182l84 40 74-22 106 30 78-18 66 18v116H618Z" fill="#4ade80" fill-opacity="0.16"/>
  <circle cx="674" cy="224" r="16" fill="#4ade80"/>
  <circle cx="748" cy="214" r="16" fill="#60a5fa"/>
  <circle cx="844" cy="250" r="16" fill="#f59e0b"/>
  <circle cx="920" cy="212" r="16" fill="#4ade80"/>

  <rect x="620" y="454" width="162" height="124" rx="22" fill="#4ade80" fill-opacity="0.12" stroke="#4ade80" stroke-opacity="0.35"/>
  <rect x="802" y="454" width="162" height="124" rx="22" fill="#60a5fa" fill-opacity="0.12" stroke="#60a5fa" stroke-opacity="0.35"/>
  <rect x="984" y="454" width="54" height="124" rx="22" fill="#ffffff" fill-opacity="0.08"/>
  <rect x="620" y="608" width="418" height="18" rx="9" fill="#ffffff" fill-opacity="0.12"/>
  <rect x="620" y="636" width="340" height="18" rx="9" fill="#ffffff" fill-opacity="0.10"/>

  <text x="140" y="640" fill="#e5eef7" font-family="Arial, Helvetica, sans-serif" font-size="52" font-weight="700">SeeU Bangkok</text>
  <text x="140" y="682" fill="#9fb3c8" font-family="Arial, Helvetica, sans-serif" font-size="22">AI travel discovery and trip planning for Bangkok</text>
</svg>
